          <svg xmlns="http://www.w3.org/2000/svg" viewBox="0 0 1440 320">
            <path
              fill="#d3cbb8"
              fill-opacity="1"
              d="M0,256L80,288L160,160L240,160L320,0L400,192L480,256L560,160L640,256L720,160L800,256L880,256L960,288L1040,128L1120,32L1200,64L1280,0L1360,96L1440,64L1440,320L1360,320L1280,320L1200,320L1120,320L1040,320L960,320L880,320L800,320L720,320L640,320L560,320L480,320L400,320L320,320L240,320L160,320L80,320L0,320Z"
            ></path>
          </svg>